<?xml version="1.0" standalone="no"?><!DOCTYPE svg PUBLIC "-//W3C//DTD SVG 1.1//EN" "http://www.w3.org/Graphics/SVG/1.1/DTD/svg11.dtd"><svg width="200" height="200" viewBox="0 0 200 200" version="1.1" xmlns="http://www.w3.org/2000/svg" xmlns:xlink="http://www.w3.org/1999/xlink"><defs><style type="text/css"><![CDATA[
@font-face { font-family: ifont; src: url("http://at.alicdn.com/t/font_1442373896_4754455.eot?#iefix") format("embedded-opentype"), url("http://at.alicdn.com/t/font_1442373896_4754455.woff") format("woff"), url("http://at.alicdn.com/t/font_1442373896_4754455.ttf") format("truetype"), url("http://at.alicdn.com/t/font_1442373896_4754455.svg#ifont") format("svg"); }

]]></style></defs><g class="transform-group"><g transform="scale(0.1953125, 0.1953125)"><path d="M932.991148 31.296585C943.585152 36.781449 950.181419 47.221388 950.181419 58.565085L950.181419 978.682257C950.181419 989.994789 943.585152 1000.43473 932.991148 1005.919595 922.397143 1011.435623 909.437811 1011.092819 899.176951 1005.078167L196.09603 545.004C186.368202 539.300988 180.504854 529.35967 180.504854 518.60809 180.504854 507.887673 186.368202 497.915193 196.09603 492.212178L899.176951 32.138011C904.573896 28.990448 910.703761 27.401084 916.866939 27.401084 922.397143 27.401084 927.960661 28.678807 932.991148 31.296585ZM231.476008 95.991129 231.476008 947.992923C231.476008 990.024836 195.075131 1024 150.22405 1024 105.372968 1024 68.972091 990.024836 68.972091 947.992923L68.972091 95.991129C68.972091 54.035222 105.372968 19.98405 150.22405 19.98405 195.075131 19.98405 231.476008 54.035222 231.476008 95.991129Z" fill="#E1E1E1"></path></g></g></svg>