<?xml version="1.0" standalone="no"?><!DOCTYPE svg PUBLIC "-//W3C//DTD SVG 1.1//EN" "http://www.w3.org/Graphics/SVG/1.1/DTD/svg11.dtd"><svg width="200" height="200" viewBox="0 0 200 200" version="1.1" xmlns="http://www.w3.org/2000/svg" xmlns:xlink="http://www.w3.org/1999/xlink"><defs><style type="text/css"><![CDATA[
@font-face { font-family: ifont; src: url("http://at.alicdn.com/t/font_1442373896_4754455.eot?#iefix") format("embedded-opentype"), url("http://at.alicdn.com/t/font_1442373896_4754455.woff") format("woff"), url("http://at.alicdn.com/t/font_1442373896_4754455.ttf") format("truetype"), url("http://at.alicdn.com/t/font_1442373896_4754455.svg#ifont") format("svg"); }

]]></style></defs><g class="transform-group"><g transform="scale(0.1953125, 0.1953125)"><path d="M890.833434 783.186949C872.858267 802.81812 843.712601 802.81812 825.737433 783.186949 807.762266 763.555778 807.762266 731.700288 825.737433 712.069116 926.723551 601.779268 926.723551 422.358791 825.737433 312.099052 807.762266 292.467881 807.762266 260.612391 825.737433 240.98122 834.740072 231.165634 846.512753 226.257841 858.285434 226.257841 870.088224 226.257841 881.860905 231.165634 890.833434 240.98122 1027.769888 390.473192 1027.769888 633.694976 890.833434 783.186949ZM761.996344 662.53955C745.978272 682.050285 720.024177 682.080394 704.006105 662.509441 687.988032 642.968597 687.988032 611.263653 704.006105 591.722809 721.439308 570.465743 731.044129 542.163134 731.044129 512.084084 731.044129 482.005035 721.439308 453.702426 704.006105 432.44536 687.988032 412.904516 687.988032 381.199572 704.006105 361.658728 712.015141 351.873251 722.523237 346.995567 733.001225 346.995567 743.509321 346.995567 753.987308 351.873251 761.996344 361.628618 794.905655 401.824345 813.031368 455.237993 813.031368 512.084084 813.031368 568.930176 794.905655 622.343823 761.996344 662.53955ZM481.890841 993.890841 271.126731 783.126731 120.580937 783.126731C61.958405 783.126731 30.253461 749.374364 30.253461 692.799255L30.253461 331.489351C30.253461 274.914241 61.958405 241.161875 120.580937 241.161875L271.126731 241.161875 481.890841 30.397764C521.634931-10.430255 602.327476-10.490474 602.327476 30.397764L602.327476 963.781683C602.327476 1044.444119 519.948818 1031.075652 481.890841 993.890841ZM512 120.72524 301.235889 331.489351C288.288951 331.067822 279.406749 331.489351 271.126731 331.489351L150.690096 331.489351C131.149252 331.489351 120.580937 343.563123 120.580937 361.598509L120.580937 662.690096C120.580937 680.695373 131.149252 692.799255 150.690096 692.799255L271.126731 692.799255C279.406749 692.799255 294.882857 692.287399 301.235889 692.799255L512 903.563365 512 120.72524Z" fill="#E1E1E1"></path></g></g></svg>