<?xml version="1.0" standalone="no"?><!DOCTYPE svg PUBLIC "-//W3C//DTD SVG 1.1//EN" "http://www.w3.org/Graphics/SVG/1.1/DTD/svg11.dtd"><svg width="200" height="200" viewBox="0 0 200 200" version="1.1" xmlns="http://www.w3.org/2000/svg" xmlns:xlink="http://www.w3.org/1999/xlink"><defs><style type="text/css"><![CDATA[
@font-face { font-family: ifont; src: url("http://at.alicdn.com/t/font_1442373896_4754455.eot?#iefix") format("embedded-opentype"), url("http://at.alicdn.com/t/font_1442373896_4754455.woff") format("woff"), url("http://at.alicdn.com/t/font_1442373896_4754455.ttf") format("truetype"), url("http://at.alicdn.com/t/font_1442373896_4754455.svg#ifont") format("svg"); }

]]></style></defs><g class="transform-group"><g transform="scale(0.1953125, 0.1953125)"><path d="M531.692308 885.090462l-122.722462-102.990769-55.926154 55.926154 185.777231 155.884308 0.551385-0.669538c7.128615 10.161231 18.353231 17.250462 31.704615 17.250462 19.731692 0 35.367385-14.769231 38.242462-33.713231l1.142154 0 0-396.091077-78.769231 78.769231L531.692308 885.090462zM108.622769 748.307692l78.769231-78.769231-108.583385 0 0-315.076923 196.923077 0 0-0.748308 256-214.803692 0 186.289231 78.769231-78.769231 0-199.168-1.142154 0c-2.875077-18.944-18.510769-33.713231-38.242462-33.713231-13.351385 0-24.576 7.089231-31.704615 17.250462l-0.551385-0.669538-292.706462 245.602462-167.384615 0c-43.480615 0-78.769231 35.288615-78.769231 78.769231l0 315.076923c0 43.480615 35.288615 78.769231 78.769231 78.769231L108.622769 748.347077zM931.918769 259.190154l-55.886769 55.886769c99.170462 123.588923 91.529846 305.112615-23.04 419.682462-15.399385 15.399385-15.399385 40.329846 0 55.729231 15.399385 15.36 40.290462 15.36 55.689846 0C1054.208 644.962462 1061.809231 413.932308 931.918769 259.190154zM847.911385 343.197538l-56.516923 56.477538c53.484308 76.760615 46.434462 183.138462-22.016 251.549538-15.36 15.36-15.36 40.290462 0 55.689846 15.399385 15.399385 40.329846 15.399385 55.729231 0C924.475077 607.586462 931.918769 451.347692 847.911385 343.197538zM66.480553 901.877902l835.465846-835.465846 55.697723 55.697723-835.465846 835.465846-55.697723-55.697723Z" fill="#E1E1E1"></path></g></g></svg>